<svg width="12" height="16" viewBox="0 0 12 16" fill="none" xmlns="http://www.w3.org/2000/svg">
<path d="M11.4821 7.98592L11.4727 7.9483C10.0874 3.60429 5.95961 0.520272 5.78408 0.391762L5.25128 0L5.28578 0.658161C5.28578 0.686395 5.38291 3.23762 2.91002 5.35944C0.224024 7.6662 0.239665 9.56867 0.245962 10.5904L0.249144 10.7315C0.249144 13.5177 2.29391 15.601 5.21932 15.9445C5.06007 15.9195 4.8974 15.887 4.73416 15.8371C3.79074 15.5456 3.23915 14.8843 3.13258 13.9315L3.10753 13.7434C3.02289 13.0069 2.9132 12.0948 4.52416 10.3648C5.12592 9.71912 5.64934 9.02331 6.08186 8.2993L6.29812 7.93578L6.58331 8.24917C7.43583 9.17999 8.08773 10.1203 8.52651 11.0354C8.9308 11.8441 8.95592 13.1229 8.92454 13.3955C8.77097 14.7871 7.76489 15.8245 6.41719 15.9749C6.32934 15.985 6.19785 15.9947 6.03687 15.9983C6.05102 15.9984 6.06449 16 6.07871 16C9.26305 16 11.7547 13.4394 11.7547 10.1704C11.7548 9.38691 11.4915 8.04232 11.4821 7.98592Z" fill="black"/>
</svg>
